<svg width="18" height="18" viewBox="0 0 18 18" fill="none" xmlns="http://www.w3.org/2000/svg">
<path fill-rule="evenodd" clip-rule="evenodd" d="M3.37508 6.7523V5.66666C3.37508 2.56006 5.89348 0.0416641 9.00008 0.0416641C12.1067 0.0416641 14.6251 2.56006 14.6251 5.66666V6.7523C14.8141 6.76559 14.9923 6.7829 15.1599 6.80543C15.91 6.90628 16.5415 7.12203 17.0431 7.62362C17.5447 8.12522 17.7605 8.75678 17.8613 9.50687C17.9584 10.2293 17.9584 11.1479 17.9584 12.2876V12.3791C17.9584 13.5187 17.9584 14.4373 17.8613 15.1598C17.7605 15.9099 17.5447 16.5414 17.0431 17.043C16.5415 17.5446 15.91 17.7604 15.1599 17.8612C14.4374 17.9584 13.5188 17.9583 12.3791 17.9583H5.62102C4.48136 17.9583 3.56276 17.9584 2.84029 17.8612C2.0902 17.7604 1.45864 17.5446 0.957041 17.043C0.455443 16.5414 0.239699 15.9099 0.138852 15.1598C0.0417181 14.4373 0.0417317 13.5187 0.0417485 12.3791V12.2876C0.0417317 11.1479 0.0417181 10.2293 0.138852 9.50687C0.239699 8.75678 0.455443 8.12522 0.957041 7.62362C1.45864 7.12203 2.0902 6.90628 2.84029 6.80543C3.00789 6.7829 3.18606 6.76559 3.37508 6.7523ZM4.62508 5.66666C4.62508 3.25042 6.58384 1.29166 9.00008 1.29166C11.4163 1.29166 13.3751 3.25042 13.3751 5.66666V6.7112C13.0638 6.70832 12.7321 6.70833 12.3791 6.70833H5.62102C5.26809 6.70833 4.93636 6.70832 4.62508 6.7112V5.66666ZM1.84092 8.50751C2.07156 8.27687 2.39537 8.1265 3.00685 8.04429C3.63631 7.95966 4.47057 7.95833 5.66675 7.95833H12.3334C13.5296 7.95833 14.3639 7.95966 14.9933 8.04429C15.6048 8.1265 15.9286 8.27687 16.1592 8.50751C16.3899 8.73814 16.5402 9.06195 16.6225 9.67343C16.7071 10.3029 16.7084 11.1372 16.7084 12.3333C16.7084 13.5295 16.7071 14.3638 16.6225 14.9932C16.5402 15.6047 16.3899 15.9285 16.1592 16.1592C15.9286 16.3898 15.6048 16.5402 14.9933 16.6224C14.3639 16.707 13.5296 16.7083 12.3334 16.7083H5.66675C4.47057 16.7083 3.63631 16.707 3.00685 16.6224C2.39537 16.5402 2.07156 16.3898 1.84092 16.1592C1.61029 15.9285 1.45992 15.6047 1.37771 14.9932C1.29308 14.3638 1.29175 13.5295 1.29175 12.3333C1.29175 11.1372 1.29308 10.3029 1.37771 9.67343C1.45992 9.06195 1.61029 8.73814 1.84092 8.50751Z" fill="#5A5F70"/>
</svg>
