<svg width="18" height="16" viewBox="0 0 18 16" fill="none" xmlns="http://www.w3.org/2000/svg">
<path fill-rule="evenodd" clip-rule="evenodd" d="M7.2864 0.708336H10.7138C12.2452 0.708323 13.4583 0.708312 14.4076 0.835949C15.3846 0.967305 16.1754 1.24407 16.799 1.86771C17.4227 2.49134 17.6994 3.28213 17.8308 4.25915C17.9584 5.2085 17.9584 6.42153 17.9584 7.95299V8.04701C17.9584 9.57848 17.9584 10.7915 17.8308 11.7409C17.6994 12.7179 17.4227 13.5087 16.799 14.1323C16.1754 14.7559 15.3846 15.0327 14.4076 15.1641C13.4583 15.2917 12.2452 15.2917 10.7138 15.2917H7.28641C5.75494 15.2917 4.54191 15.2917 3.59256 15.1641C2.61554 15.0327 1.82475 14.7559 1.20112 14.1323C0.577482 13.5087 0.300717 12.7179 0.169361 11.7409C0.0417246 10.7915 0.0417351 9.57848 0.0417483 8.04702V7.95299C0.0417351 6.42152 0.0417246 5.2085 0.169361 4.25915C0.300717 3.28213 0.577482 2.49134 1.20112 1.86771C1.82475 1.24407 2.61554 0.967305 3.59256 0.835949C4.54191 0.708312 5.75493 0.708323 7.2864 0.708336ZM3.75912 2.0748C2.92071 2.18752 2.43768 2.39891 2.085 2.75159C1.73233 3.10426 1.52094 3.5873 1.40821 4.42571C1.29308 5.2821 1.29175 6.41099 1.29175 8C1.29175 9.58902 1.29308 10.7179 1.40821 11.5743C1.52094 12.4127 1.73233 12.8957 2.085 13.2484C2.43768 13.6011 2.92071 13.8125 3.75912 13.9252C4.61551 14.0403 5.7444 14.0417 7.33341 14.0417H10.6667C12.2558 14.0417 13.3847 14.0403 14.241 13.9252C15.0794 13.8125 15.5625 13.6011 15.9152 13.2484C16.2678 12.8957 16.4792 12.4127 16.5919 11.5743C16.7071 10.7179 16.7084 9.58902 16.7084 8C16.7084 6.41099 16.7071 5.2821 16.5919 4.42571C16.4792 3.5873 16.2678 3.10426 15.9152 2.75159C15.5625 2.39891 15.0794 2.18752 14.241 2.0748C13.3847 1.95966 12.2558 1.95834 10.6667 1.95834H7.33342C5.7444 1.95834 4.61551 1.95966 3.75912 2.0748ZM3.51994 4.26655C3.74092 4.00138 4.13502 3.96555 4.4002 4.18653L6.19928 5.68576C6.97674 6.33365 7.51652 6.78202 7.97223 7.07511C8.41337 7.35883 8.71252 7.45407 9.00008 7.45407C9.28764 7.45407 9.5868 7.35883 10.0279 7.07511C10.4836 6.78202 11.0234 6.33365 11.8009 5.68576L13.6 4.18653C13.8651 3.96555 14.2592 4.00138 14.4802 4.26655C14.7012 4.53173 14.6654 4.92583 14.4002 5.14681L12.5698 6.67215C11.8312 7.28769 11.2325 7.7866 10.7041 8.12644C10.1537 8.48044 9.61765 8.70407 9.00008 8.70407C8.38252 8.70407 7.84648 8.48044 7.29606 8.12644C6.76768 7.78661 6.16901 7.2877 5.43038 6.67216L3.59997 5.14681C3.33479 4.92583 3.29897 4.53173 3.51994 4.26655Z" fill="#3F4559"/>
</svg>
