<svg width="16" height="18" viewBox="0 0 16 18" fill="none" xmlns="http://www.w3.org/2000/svg">
<path fill-rule="evenodd" clip-rule="evenodd" d="M8.00003 0.041666C5.8139 0.041666 4.0417 1.81387 4.0417 4C4.0417 6.18613 5.8139 7.95833 8.00003 7.95833C10.1862 7.95833 11.9584 6.18613 11.9584 4C11.9584 1.81387 10.1862 0.041666 8.00003 0.041666ZM5.2917 4C5.2917 2.50423 6.50426 1.29167 8.00003 1.29167C9.4958 1.29167 10.7084 2.50423 10.7084 4C10.7084 5.49577 9.4958 6.70833 8.00003 6.70833C6.50426 6.70833 5.2917 5.49577 5.2917 4Z" fill="#5A5F70"/>
<path fill-rule="evenodd" clip-rule="evenodd" d="M8.00003 9.20833C6.07207 9.20833 4.2958 9.64657 2.97957 10.3869C1.68293 11.1163 0.708364 12.2217 0.708364 13.5833L0.708309 13.6683C0.707367 14.6365 0.706185 15.8517 1.77204 16.7196C2.2966 17.1468 3.03043 17.4505 4.02187 17.6512C5.01608 17.8525 6.31188 17.9583 8.00003 17.9583C9.68818 17.9583 10.984 17.8525 11.9782 17.6512C12.9696 17.4505 13.7035 17.1468 14.228 16.7196C15.2939 15.8517 15.2927 14.6365 15.2917 13.6683L15.2917 13.5833C15.2917 12.2217 14.3171 11.1163 13.0205 10.3869C11.7043 9.64657 9.92799 9.20833 8.00003 9.20833ZM1.95836 13.5833C1.95836 12.8739 2.47618 12.1043 3.5924 11.4764C4.68903 10.8596 6.24609 10.4583 8.00003 10.4583C9.75397 10.4583 11.311 10.8596 12.4077 11.4764C13.5239 12.1043 14.0417 12.8739 14.0417 13.5833C14.0417 14.6732 14.0081 15.2867 13.4387 15.7503C13.1299 16.0018 12.6138 16.2472 11.7302 16.4261C10.8494 16.6043 9.64522 16.7083 8.00003 16.7083C6.35484 16.7083 5.15065 16.6043 4.26986 16.4261C3.3863 16.2472 2.87013 16.0018 2.56135 15.7503C1.99196 15.2867 1.95836 14.6732 1.95836 13.5833Z" fill="#5A5F70"/>
</svg>
